<svg width="12" height="12" viewBox="0 0 12 12" fill="none" xmlns="http://www.w3.org/2000/svg">
<path d="M10.5 2.00012H1.5C1.10218 2.00012 0.720644 2.15816 0.43934 2.43946C0.158035 2.72077 0 3.1023 0 3.50012L0 10.0001H12V3.50012C12 3.1023 11.842 2.72077 11.5607 2.43946C11.2794 2.15816 10.8978 2.00012 10.5 2.00012ZM11 9.00012H1V3.50012C1 3.36751 1.05268 3.24034 1.14645 3.14657C1.24021 3.0528 1.36739 3.00012 1.5 3.00012H10.5C10.6326 3.00012 10.7598 3.0528 10.8536 3.14657C10.9473 3.24034 11 3.36751 11 3.50012V9.00012ZM6 4.00012C5.60444 4.00012 5.21776 4.11742 4.88886 4.33718C4.55996 4.55695 4.30362 4.8693 4.15224 5.23476C4.00087 5.60021 3.96126 6.00234 4.03843 6.3903C4.1156 6.77826 4.30608 7.13463 4.58579 7.41434C4.86549 7.69404 5.22186 7.88452 5.60982 7.96169C5.99778 8.03886 6.39991 7.99926 6.76537 7.84788C7.13082 7.69651 7.44318 7.44016 7.66294 7.11126C7.8827 6.78236 8 6.39568 8 6.00012C8 5.46969 7.78929 4.96098 7.41421 4.58591C7.03914 4.21084 6.53043 4.00012 6 4.00012ZM6 7.00012C5.80222 7.00012 5.60888 6.94147 5.44443 6.83159C5.27998 6.72171 5.15181 6.56553 5.07612 6.38281C5.00043 6.20008 4.98063 5.99901 5.01921 5.80503C5.0578 5.61105 5.15304 5.43287 5.29289 5.29302C5.43275 5.15316 5.61093 5.05792 5.80491 5.01934C5.99889 4.98075 6.19996 5.00055 6.38268 5.07624C6.56541 5.15193 6.72159 5.2801 6.83147 5.44455C6.94135 5.609 7 5.80234 7 6.00012C7 6.26534 6.89464 6.51969 6.70711 6.70723C6.51957 6.89476 6.26522 7.00012 6 7.00012ZM3 4.50012C3 4.59901 2.97068 4.69568 2.91573 4.77791C2.86079 4.86013 2.7827 4.92422 2.69134 4.96206C2.59998 4.99991 2.49945 5.00981 2.40245 4.99051C2.30546 4.97122 2.21637 4.9236 2.14645 4.85368C2.07652 4.78375 2.0289 4.69466 2.00961 4.59767C1.99031 4.50068 2.00022 4.40014 2.03806 4.30878C2.0759 4.21742 2.13999 4.13933 2.22221 4.08439C2.30444 4.02945 2.40111 4.00012 2.5 4.00012C2.63261 4.00012 2.75979 4.0528 2.85355 4.14657C2.94732 4.24034 3 4.36751 3 4.50012ZM10 4.50012C10 4.59901 9.97068 4.69568 9.91574 4.77791C9.86079 4.86013 9.7827 4.92422 9.69134 4.96206C9.59998 4.99991 9.49944 5.00981 9.40245 4.99051C9.30546 4.97122 9.21637 4.9236 9.14645 4.85368C9.07652 4.78375 9.0289 4.69466 9.00961 4.59767C8.99031 4.50068 9.00022 4.40014 9.03806 4.30878C9.0759 4.21742 9.13999 4.13933 9.22221 4.08439C9.30444 4.02945 9.40111 4.00012 9.5 4.00012C9.63261 4.00012 9.75979 4.0528 9.85355 4.14657C9.94732 4.24034 10 4.36751 10 4.50012ZM3 7.50012C3 7.59901 2.97068 7.69568 2.91573 7.77791C2.86079 7.86013 2.7827 7.92422 2.69134 7.96206C2.59998 7.99991 2.49945 8.00981 2.40245 7.99051C2.30546 7.97122 2.21637 7.9236 2.14645 7.85368C2.07652 7.78375 2.0289 7.69466 2.00961 7.59767C1.99031 7.50068 2.00022 7.40014 2.03806 7.30878C2.0759 7.21742 2.13999 7.13933 2.22221 7.08439C2.30444 7.02945 2.40111 7.00012 2.5 7.00012C2.63261 7.00012 2.75979 7.0528 2.85355 7.14657C2.94732 7.24034 3 7.36751 3 7.50012ZM10 7.50012C10 7.59901 9.97068 7.69568 9.91574 7.77791C9.86079 7.86013 9.7827 7.92422 9.69134 7.96206C9.59998 7.99991 9.49944 8.00981 9.40245 7.99051C9.30546 7.97122 9.21637 7.9236 9.14645 7.85368C9.07652 7.78375 9.0289 7.69466 9.00961 7.59767C8.99031 7.50068 9.00022 7.40014 9.03806 7.30878C9.0759 7.21742 9.13999 7.13933 9.22221 7.08439C9.30444 7.02945 9.40111 7.00012 9.5 7.00012C9.63261 7.00012 9.75979 7.0528 9.85355 7.14657C9.94732 7.24034 10 7.36751 10 7.50012Z" fill="#374957"/>
</svg>
