<svg width="12" height="12" viewBox="0 0 12 12" fill="none" xmlns="http://www.w3.org/2000/svg">
<path d="M5.99993 0C3.08472 0 0.97424 0.700202 0.227998 1.6968C0.0345003 1.9548 0 2.2344 0 2.4V9.6C0 9.7656 0.0584987 10.0374 0.240747 10.305C0.89849 11.268 3.08472 12 5.99993 12C8.9144 12 10.9454 11.3184 11.7239 10.3662C11.8919 10.1604 12.0044 9.8538 11.9999 9.6V2.4C11.9999 2.2344 11.9721 2.0604 11.8784 1.878C11.2829 0.727203 8.9144 0 5.99993 0ZM5.99993 1.2C7.31467 1.2 8.5424 1.38601 9.42139 1.68721C10.1541 1.93861 10.4999 2.214 10.4999 2.4C10.4999 2.586 10.1541 2.86139 9.42139 3.11279C8.5424 3.41399 7.31467 3.6 5.99993 3.6C4.6852 3.6 3.45671 3.41399 2.57772 3.11279C1.84498 2.86139 1.49998 2.586 1.49998 2.4C1.49998 2.214 1.84498 1.93861 2.57772 1.68721C3.45671 1.38601 4.6852 1.2 5.99993 1.2ZM1.49699 4.02481C2.60397 4.53121 4.1857 4.8 5.99993 4.8C7.81342 4.8 9.38839 4.5372 10.4961 4.0314L10.4999 6C10.4999 6.186 10.1541 6.46139 9.42139 6.71279C8.5424 7.01399 7.31467 7.2 5.99993 7.2C4.6852 7.2 3.45671 7.01399 2.57772 6.71279C1.84498 6.46139 1.49998 6.186 1.49998 6L1.49699 4.02481ZM1.50074 7.63079C2.57098 8.09519 4.1857 8.4 5.99993 8.4C7.81342 8.4 9.36215 8.1174 10.4969 7.6314L10.4999 9.6C10.4999 9.786 10.1541 10.0614 9.42139 10.3128C8.5424 10.614 7.31467 10.8 5.99993 10.8C4.6852 10.8 3.45671 10.614 2.57772 10.3128C1.84498 10.0614 1.49998 9.786 1.49998 9.6L1.50074 7.63079Z" fill="#374957"/>
</svg>
