<svg width="12" height="12" viewBox="0 0 12 12" fill="none" xmlns="http://www.w3.org/2000/svg">
<path d="M2.75006 8.50012C3.16427 8.50012 3.50006 8.16434 3.50006 7.75012C3.50006 7.33591 3.16427 7.00012 2.75006 7.00012C2.33585 7.00012 2.00006 7.33591 2.00006 7.75012C2.00006 8.16434 2.33585 8.50012 2.75006 8.50012Z" fill="#374957"/>
<path d="M9.5 1.5H2.5C1.8372 1.50079 1.20178 1.76444 0.73311 2.23311C0.264441 2.70178 0.000793929 3.3372 0 4L0 8C0.000793929 8.6628 0.264441 9.29822 0.73311 9.76689C1.20178 10.2356 1.8372 10.4992 2.5 10.5H9.5C10.1628 10.4992 10.7982 10.2356 11.2669 9.76689C11.7356 9.29822 11.9992 8.6628 12 8V4C11.9992 3.3372 11.7356 2.70178 11.2669 2.23311C10.7982 1.76444 10.1628 1.50079 9.5 1.5ZM2.5 2.5H9.5C9.89782 2.5 10.2794 2.65804 10.5607 2.93934C10.842 3.22064 11 3.60218 11 4H1C1 3.60218 1.15804 3.22064 1.43934 2.93934C1.72064 2.65804 2.10218 2.5 2.5 2.5ZM9.5 9.5H2.5C2.10218 9.5 1.72064 9.34196 1.43934 9.06066C1.15804 8.77936 1 8.39782 1 8V5H11V8C11 8.39782 10.842 8.77936 10.5607 9.06066C10.2794 9.34196 9.89782 9.5 9.5 9.5Z" fill="#374957"/>
</svg>
