<svg width="12" height="12" viewBox="0 0 12 12" fill="none" xmlns="http://www.w3.org/2000/svg">
<g clip-path="url(#clip0_59_637)">
<path d="M12 11.5C12 11.6326 11.9473 11.7598 11.8536 11.8536C11.7598 11.9474 11.6326 12 11.5 12H0.500012C0.367404 12 0.240227 11.9474 0.146459 11.8536C0.0526907 11.7598 1.2312e-05 11.6326 1.2312e-05 11.5C1.2312e-05 11.3674 0.0526907 11.2402 0.146459 11.1465C0.240227 11.0527 0.367404 11 0.500012 11H11.5C11.6326 11 11.7598 11.0527 11.8536 11.1465C11.9473 11.2402 12 11.3674 12 11.5ZM0.145512 4.27603C0.0377735 4.07619 -0.0121404 3.85028 0.00137253 3.62365C0.0148854 3.39702 0.0912902 3.17865 0.222012 2.99303C0.435641 2.67959 0.721735 2.42231 1.05601 2.24303L4.80651 0.291028C5.17514 0.0993431 5.58452 -0.000732422 6.00001 -0.000732422C6.4155 -0.000732422 6.82488 0.0993431 7.19351 0.291028L10.9435 2.24453C11.2778 2.42381 11.5639 2.68109 11.7775 2.99453C11.9082 3.18015 11.9846 3.39852 11.9982 3.62515C12.0117 3.85178 11.9618 4.07769 11.854 4.27753C11.738 4.49694 11.5641 4.68033 11.3511 4.80772C11.1381 4.93512 10.8942 5.00163 10.646 5.00003H10.5V9.00003H11C11.1326 9.00003 11.2598 9.05271 11.3536 9.14647C11.4473 9.24024 11.5 9.36742 11.5 9.50003C11.5 9.63264 11.4473 9.75981 11.3536 9.85358C11.2598 9.94735 11.1326 10 11 10H1.00001C0.867404 10 0.740227 9.94735 0.646459 9.85358C0.552691 9.75981 0.500012 9.63264 0.500012 9.50003C0.500012 9.36742 0.552691 9.24024 0.646459 9.14647C0.740227 9.05271 0.867404 9.00003 1.00001 9.00003H1.50001V5.00003H1.35401C1.10559 5.00158 0.861515 4.93488 0.648407 4.80721C0.435298 4.67954 0.261342 4.4958 0.145512 4.27603ZM2.50001 9.00003H4.00001V5.00003H2.50001V9.00003ZM5.00001 5.00003V9.00003H7.00001V5.00003H5.00001ZM9.50001 5.00003H8.00001V9.00003H9.50001V5.00003ZM1.03151 3.81253C1.06288 3.87037 1.10957 3.91846 1.16645 3.95153C1.22334 3.9846 1.28823 4.00138 1.35401 4.00003H10.646C10.7118 4.00138 10.7767 3.9846 10.8336 3.95153C10.8905 3.91846 10.9371 3.87037 10.9685 3.81253C10.9914 3.77431 11.0024 3.73019 11.0003 3.68572C10.9981 3.64124 10.9829 3.59838 10.9565 3.56253C10.8354 3.38248 10.6726 3.2343 10.482 3.13053L6.73201 1.17703C6.50602 1.05974 6.25513 0.998514 6.00051 0.998514C5.74589 0.998514 5.49501 1.05974 5.26901 1.17703L1.51901 3.13053C1.3285 3.23463 1.16578 3.38296 1.04451 3.56303C1.01806 3.59873 1.00271 3.64144 1.0004 3.68582C0.998089 3.7302 1.00891 3.77427 1.03151 3.81253Z" fill="#374957"/>
</g>
<defs>
<clipPath id="clip0_59_637">
<rect width="12" height="12" fill="white"/>
</clipPath>
</defs>
</svg>
