<svg width="128" height="25" viewBox="0 0 128 25" fill="none" xmlns="http://www.w3.org/2000/svg">
<path d="M8.77 20.3C7.65667 20.3 6.62667 20.13 5.68 19.79C4.73333 19.45 3.90333 18.9633 3.19 18.33C2.48333 17.69 1.93333 16.9233 1.54 16.03C1.14667 15.1367 0.95 14.1333 0.95 13.02C0.95 11.9133 1.14 10.9133 1.52 10.02C1.9 9.12 2.43 8.35 3.11 7.71C3.79667 7.06333 4.6 6.56667 5.52 6.22C6.44667 5.87333 7.45667 5.7 8.55 5.7C9.05667 5.7 9.57 5.74 10.09 5.82C10.61 5.9 11.12 6.03333 11.62 6.22C12.1267 6.4 12.6067 6.64667 13.06 6.96L12.08 8.72C11.5733 8.4 11.0233 8.16 10.43 8C9.84333 7.84 9.23667 7.76 8.61 7.76C7.79667 7.76 7.06 7.88333 6.4 8.13C5.74 8.37 5.17667 8.72 4.71 9.18C4.24333 9.63333 3.88333 10.1833 3.63 10.83C3.38333 11.4767 3.26 12.2033 3.26 13.01C3.26 14.1433 3.5 15.1067 3.98 15.9C4.46 16.6933 5.12 17.2967 5.96 17.71C6.80667 18.1167 7.78 18.32 8.88 18.32C9.42 18.32 9.90667 18.27 10.34 18.17C10.7733 18.0633 11.1233 17.9433 11.39 17.81V14.43H8.21V12.57H13.4V19.11C13.0333 19.3567 12.5733 19.57 12.02 19.75C11.4733 19.93 10.9067 20.0667 10.32 20.16C9.74 20.2533 9.22333 20.3 8.77 20.3ZM21.0695 20.3C20.0029 20.3 19.0662 20.0833 18.2595 19.65C17.4529 19.21 16.8229 18.5967 16.3695 17.81C15.9229 17.0233 15.6995 16.11 15.6995 15.07C15.6995 14.31 15.8295 13.61 16.0895 12.97C16.3495 12.3233 16.7162 11.7633 17.1895 11.29C17.6629 10.8167 18.2162 10.45 18.8495 10.19C19.4895 9.93 20.1862 9.8 20.9395 9.8C21.7595 9.8 22.4895 9.94667 23.1295 10.24C23.7695 10.5267 24.2995 10.93 24.7195 11.45C25.1462 11.97 25.4462 12.58 25.6195 13.28C25.7995 13.9733 25.8295 14.7267 25.7095 15.54H17.8095C17.7962 16.1333 17.9262 16.6533 18.1995 17.1C18.4729 17.54 18.8629 17.8833 19.3695 18.13C19.8829 18.3767 20.4862 18.5 21.1795 18.5C21.7395 18.5 22.2795 18.4167 22.7995 18.25C23.3262 18.0767 23.8029 17.8233 24.2295 17.49L25.0795 19.07C24.7595 19.33 24.3729 19.5533 23.9195 19.74C23.4662 19.92 22.9929 20.0567 22.4995 20.15C22.0062 20.25 21.5295 20.3 21.0695 20.3ZM17.9395 13.92H23.5495C23.5295 13.1733 23.2895 12.5867 22.8295 12.16C22.3762 11.7333 21.7295 11.52 20.8895 11.52C20.0762 11.52 19.3995 11.7333 18.8595 12.16C18.3262 12.5867 18.0195 13.1733 17.9395 13.92ZM32.0572 20.3C31.0905 20.3 30.3172 20.02 29.7372 19.46C29.1572 18.9 28.8672 18.0433 28.8672 16.89V7.21H31.0672V10.1H33.8172V11.92H31.0672V16.41C31.0672 17.1033 31.1972 17.5933 31.4572 17.88C31.7239 18.16 32.0972 18.3 32.5772 18.3C32.8105 18.3 33.0305 18.2733 33.2372 18.22C33.4439 18.1667 33.6305 18.0967 33.7972 18.01L34.1872 19.79C33.9005 19.9367 33.5705 20.0567 33.1972 20.15C32.8305 20.25 32.4505 20.3 32.0572 20.3ZM26.6972 11.92V10.1H29.1572V11.92H26.6972ZM46.2433 20.3C45.2766 20.3 44.3299 20.1633 43.4033 19.89C42.4833 19.61 41.7066 19.21 41.0733 18.69L42.1733 16.98C42.5066 17.2667 42.8933 17.5133 43.3333 17.72C43.7799 17.9267 44.2533 18.0867 44.7533 18.2C45.2533 18.3067 45.7533 18.36 46.2533 18.36C47.1666 18.36 47.9033 18.1867 48.4633 17.84C49.0299 17.4933 49.3133 16.9867 49.3133 16.32C49.3133 15.82 49.1199 15.3967 48.7333 15.05C48.3533 14.7033 47.6466 14.3833 46.6133 14.09L45.1733 13.67C43.8533 13.29 42.8899 12.7867 42.2833 12.16C41.6833 11.5333 41.3833 10.7533 41.3833 9.82C41.3833 9.2 41.5066 8.64 41.7533 8.14C42.0066 7.64 42.3599 7.20667 42.8133 6.84C43.2733 6.47333 43.8133 6.19333 44.4333 6C45.0533 5.80667 45.7333 5.71 46.4733 5.71C47.4133 5.71 48.2866 5.84667 49.0933 6.12C49.8999 6.39333 50.5666 6.76 51.0933 7.22L49.9533 8.88C49.6666 8.62 49.3299 8.39667 48.9433 8.21C48.5633 8.02333 48.1533 7.88 47.7133 7.78C47.2733 7.68 46.8266 7.63 46.3733 7.63C45.8133 7.63 45.3166 7.71333 44.8833 7.88C44.4566 8.04 44.1233 8.27333 43.8833 8.58C43.6433 8.88667 43.5233 9.26 43.5233 9.7C43.5233 10.02 43.6033 10.3 43.7633 10.54C43.9233 10.78 44.1966 11 44.5833 11.2C44.9766 11.3933 45.5166 11.59 46.2033 11.79L47.7233 12.24C49.0166 12.62 49.9633 13.1167 50.5633 13.73C51.1633 14.3367 51.4633 15.1267 51.4633 16.1C51.4633 16.9333 51.2566 17.6667 50.8433 18.3C50.4366 18.9267 49.8433 19.4167 49.0633 19.77C48.2833 20.1233 47.3433 20.3 46.2433 20.3ZM58.1119 20.3C57.1452 20.3 56.3719 20.02 55.7919 19.46C55.2119 18.9 54.9219 18.0433 54.9219 16.89V7.21H57.1219V10.1H59.8719V11.92H57.1219V16.41C57.1219 17.1033 57.2519 17.5933 57.5119 17.88C57.7785 18.16 58.1519 18.3 58.6319 18.3C58.8652 18.3 59.0852 18.2733 59.2919 18.22C59.4985 18.1667 59.6852 18.0967 59.8519 18.01L60.2419 19.79C59.9552 19.9367 59.6252 20.0567 59.2519 20.15C58.8852 20.25 58.5052 20.3 58.1119 20.3ZM52.7519 11.92V10.1H55.2119V11.92H52.7519ZM65.2956 20.3C64.609 20.3 64.0056 20.1733 63.4856 19.92C62.9656 19.66 62.559 19.2967 62.2656 18.83C61.979 18.3567 61.8356 17.8 61.8356 17.16C61.8356 16.62 61.9723 16.1333 62.2456 15.7C62.519 15.26 62.9423 14.8967 63.5156 14.61C64.0956 14.3233 64.839 14.1333 65.7456 14.04C66.6523 13.94 67.7423 13.9533 69.0156 14.08L69.0556 15.6C68.149 15.4733 67.369 15.42 66.7156 15.44C66.0623 15.46 65.5256 15.5433 65.1056 15.69C64.6923 15.83 64.3856 16.02 64.1856 16.26C63.9923 16.4933 63.8956 16.7633 63.8956 17.07C63.8956 17.55 64.0656 17.92 64.4056 18.18C64.7523 18.44 65.2256 18.57 65.8256 18.57C66.339 18.57 66.799 18.4767 67.2056 18.29C67.6123 18.1033 67.9323 17.84 68.1656 17.5C68.4056 17.16 68.5256 16.76 68.5256 16.3V13.67C68.5256 13.23 68.4323 12.85 68.2456 12.53C68.059 12.2033 67.7756 11.95 67.3956 11.77C67.0156 11.59 66.5423 11.5 65.9756 11.5C65.4556 11.5 64.9423 11.58 64.4356 11.74C63.929 11.8933 63.4456 12.1367 62.9856 12.47L62.3656 10.85C62.9856 10.43 63.6323 10.1333 64.3056 9.96C64.979 9.78667 65.6256 9.7 66.2456 9.7C67.1656 9.7 67.9523 9.84667 68.6056 10.14C69.2656 10.4267 69.7723 10.8633 70.1256 11.45C70.479 12.03 70.6556 12.7633 70.6556 13.65V20H68.6756V18.83C68.3423 19.3033 67.879 19.6667 67.2856 19.92C66.6923 20.1733 66.029 20.3 65.2956 20.3ZM73.5808 20V10.1H75.7808V11.47C76.1541 10.85 76.6074 10.4167 77.1408 10.17C77.6741 9.91667 78.2474 9.79 78.8608 9.79C79.0608 9.79 79.2508 9.8 79.4308 9.82C79.6108 9.84 79.7841 9.87 79.9508 9.91L79.6608 12.18C79.4608 12.12 79.2574 12.0733 79.0508 12.04C78.8441 12.0067 78.6374 11.99 78.4308 11.99C77.6641 11.99 77.0308 12.2267 76.5308 12.7C76.0308 13.1667 75.7808 13.8033 75.7808 14.61V20H73.5808ZM86.022 20.3C85.0554 20.3 84.282 20.02 83.702 19.46C83.122 18.9 82.832 18.0433 82.832 16.89V7.21H85.032V10.1H87.782V11.92H85.032V16.41C85.032 17.1033 85.162 17.5933 85.422 17.88C85.6887 18.16 86.062 18.3 86.542 18.3C86.7754 18.3 86.9954 18.2733 87.202 18.22C87.4087 18.1667 87.5954 18.0967 87.762 18.01L88.152 19.79C87.8654 19.9367 87.5354 20.0567 87.162 20.15C86.7954 20.25 86.4154 20.3 86.022 20.3ZM80.662 11.92V10.1H83.122V11.92H80.662Z" fill="#0E0673"/>
<path d="M97.063 19C96.9239 19.0004 96.786 18.9867 96.6572 18.9598C96.5285 18.9328 96.4114 18.8931 96.3126 18.8429C96.2136 18.7926 96.1349 18.7327 96.0813 18.6667C96.0276 18.6007 96 18.5299 96 18.4584C96 18.3869 96.0276 18.3161 96.0813 18.2501C96.1349 18.1841 96.2136 18.1242 96.3126 18.0739L104.947 13.6492C105.541 13.3446 105.874 12.9317 105.874 12.5011C105.874 12.0706 105.541 11.6576 104.947 11.353L96.3126 6.92831C96.1136 6.82633 96.0018 6.68801 96.0018 6.54379C96.0018 6.39957 96.1136 6.26125 96.3126 6.15927C96.5116 6.05729 96.7815 6 97.063 6C97.3444 6 97.6143 6.05729 97.8133 6.15927L106.448 10.5839C106.94 10.8355 107.33 11.1343 107.596 11.4633C107.863 11.7922 108 12.1449 108 12.5011C108 12.8573 107.863 13.21 107.596 13.5389C107.33 13.8679 106.94 14.1667 106.448 14.4183L97.8133 18.8429C97.7146 18.8931 97.5974 18.9328 97.4687 18.9598C97.3399 18.9867 97.202 19.0004 97.063 19Z" fill="#0E0673"/>
<path d="M117.063 20C116.924 20.0004 116.786 19.9867 116.657 19.9598C116.528 19.9328 116.411 19.8931 116.313 19.8429C116.214 19.7926 116.135 19.7327 116.081 19.6667C116.028 19.6007 116 19.5299 116 19.4584C116 19.3869 116.028 19.3161 116.081 19.2501C116.135 19.1841 116.214 19.1242 116.313 19.0739L124.947 14.6492C125.541 14.3446 125.874 13.9317 125.874 13.5011C125.874 13.0706 125.541 12.6576 124.947 12.353L116.313 7.92831C116.114 7.82633 116.002 7.68801 116.002 7.54379C116.002 7.39957 116.114 7.26125 116.313 7.15927C116.512 7.05729 116.782 7 117.063 7C117.344 7 117.614 7.05729 117.813 7.15927L126.448 11.5839C126.94 11.8355 127.33 12.1343 127.596 12.4633C127.863 12.7922 128 13.1449 128 13.5011C128 13.8573 127.863 14.21 127.596 14.5389C127.33 14.8679 126.94 15.1667 126.448 15.4183L117.813 19.8429C117.715 19.8931 117.597 19.9328 117.469 19.9598C117.34 19.9867 117.202 20.0004 117.063 20Z" fill="#0E0673"/>
</svg>
