<svg width="10" height="10" viewBox="0 0 10 10" fill="none" xmlns="http://www.w3.org/2000/svg">
<g clip-path="url(#clip0_60_327)">
<path d="M2.91664 9.99998C2.86181 10.0003 2.80745 9.98979 2.75668 9.96905C2.70591 9.94832 2.65974 9.91777 2.62081 9.87915C2.58175 9.84042 2.55076 9.79433 2.5296 9.74356C2.50845 9.69278 2.49756 9.63832 2.49756 9.58332C2.49756 9.52831 2.50845 9.47385 2.5296 9.42308C2.55076 9.3723 2.58175 9.32622 2.62081 9.28748L6.02497 5.88332C6.25906 5.64895 6.39054 5.33124 6.39054 4.99999C6.39054 4.66874 6.25906 4.35103 6.02497 4.11666L2.62081 0.712495C2.54235 0.634035 2.49827 0.527621 2.49827 0.416662C2.49827 0.305703 2.54235 0.199289 2.62081 0.120829C2.69927 0.0423693 2.80568 -0.00170898 2.91664 -0.00170898C3.0276 -0.00170898 3.13401 0.0423693 3.21247 0.120829L6.61664 3.52499C6.81065 3.71851 6.96458 3.94841 7.06961 4.20152C7.17464 4.45462 7.2287 4.72596 7.2287 4.99999C7.2287 5.27402 7.17464 5.54536 7.06961 5.79846C6.96458 6.05157 6.81065 6.28146 6.61664 6.47499L3.21247 9.87915C3.17354 9.91777 3.12737 9.94832 3.0766 9.96905C3.02584 9.98979 2.97148 10.0003 2.91664 9.99998Z" fill="#FE7329"/>
</g>
<defs>
<clipPath id="clip0_60_327">
<rect width="10" height="10" fill="white"/>
</clipPath>
</defs>
</svg>
