<svg width="20" height="20" viewBox="0 0 20 20" fill="none" xmlns="http://www.w3.org/2000/svg">
<path d="M7.67241 13.7121C7.67241 14.8836 6.74611 15.8333 5.60345 15.8333C4.46079 15.8333 3.53448 14.8836 3.53448 13.7121M7.67241 13.7121C7.67241 12.5406 6.74611 11.5909 5.60345 11.5909C4.46079 11.5909 3.53448 12.5406 3.53448 13.7121M7.67241 13.7121H12.3276M3.53448 13.7121H2.5V5.16663C2.5 4.61434 2.94772 4.16663 3.5 4.16663H12.3276V13.7121M16.9828 13.7121C16.9828 14.8836 16.0565 15.8333 14.9138 15.8333C13.7711 15.8333 12.8448 14.8836 12.8448 13.7121M16.9828 13.7121C16.9828 12.5406 16.0565 11.5909 14.9138 11.5909C13.7711 11.5909 12.8448 12.5406 12.8448 13.7121M16.9828 13.7121H17.5V9.46966L14.9138 6.81814H12.3276V13.7121M12.8448 13.7121H12.3276" stroke="#656565" stroke-width="2" stroke-linecap="round" stroke-linejoin="round"/>
</svg>
