<svg width="15" height="15" viewBox="0 0 15 15" fill="none" xmlns="http://www.w3.org/2000/svg">
<path d="M13.125 2.5H11.1875C11.0424 1.79463 10.6586 1.16084 10.1008 0.705449C9.54293 0.250056 8.84513 0.000909078 8.125 0L6.875 0C6.15487 0.000909078 5.45707 0.250056 4.89922 0.705449C4.34136 1.16084 3.95756 1.79463 3.8125 2.5H1.875C1.70924 2.5 1.55027 2.56585 1.43306 2.68306C1.31585 2.80027 1.25 2.95924 1.25 3.125C1.25 3.29076 1.31585 3.44973 1.43306 3.56694C1.55027 3.68415 1.70924 3.75 1.875 3.75H2.5V11.875C2.50099 12.7035 2.83055 13.4978 3.41639 14.0836C4.00222 14.6694 4.7965 14.999 5.625 15H9.375C10.2035 14.999 10.9978 14.6694 11.5836 14.0836C12.1694 13.4978 12.499 12.7035 12.5 11.875V3.75H13.125C13.2908 3.75 13.4497 3.68415 13.5669 3.56694C13.6842 3.44973 13.75 3.29076 13.75 3.125C13.75 2.95924 13.6842 2.80027 13.5669 2.68306C13.4497 2.56585 13.2908 2.5 13.125 2.5ZM6.875 1.25H8.125C8.51267 1.25047 8.8907 1.37086 9.20726 1.59465C9.52381 1.81844 9.76339 2.13468 9.89313 2.5H5.10687C5.23661 2.13468 5.47619 1.81844 5.79274 1.59465C6.1093 1.37086 6.48733 1.25047 6.875 1.25ZM11.25 11.875C11.25 12.3723 11.0525 12.8492 10.7008 13.2008C10.3492 13.5525 9.87228 13.75 9.375 13.75H5.625C5.12772 13.75 4.65081 13.5525 4.29917 13.2008C3.94754 12.8492 3.75 12.3723 3.75 11.875V3.75H11.25V11.875Z" fill="#FE1818"/>
<path d="M6.25 11.2496C6.41576 11.2496 6.57473 11.1838 6.69194 11.0666C6.80915 10.9494 6.875 10.7904 6.875 10.6246V6.87463C6.875 6.70887 6.80915 6.5499 6.69194 6.43269C6.57473 6.31548 6.41576 6.24963 6.25 6.24963C6.08424 6.24963 5.92527 6.31548 5.80806 6.43269C5.69085 6.5499 5.625 6.70887 5.625 6.87463V10.6246C5.625 10.7904 5.69085 10.9494 5.80806 11.0666C5.92527 11.1838 6.08424 11.2496 6.25 11.2496Z" fill="#FE1818"/>
<path d="M8.74988 11.2496C8.91564 11.2496 9.07461 11.1838 9.19183 11.0666C9.30904 10.9494 9.37489 10.7904 9.37489 10.6246V6.87463C9.37489 6.70887 9.30904 6.5499 9.19183 6.43269C9.07461 6.31548 8.91564 6.24963 8.74988 6.24963C8.58412 6.24963 8.42515 6.31548 8.30794 6.43269C8.19073 6.5499 8.12488 6.70887 8.12488 6.87463V10.6246C8.12488 10.7904 8.19073 10.9494 8.30794 11.0666C8.42515 11.1838 8.58412 11.2496 8.74988 11.2496Z" fill="#FE1818"/>
</svg>
